RBDS05runT45_grf
version=1
nRows=30
nColumns=19
inDegrees=no
endheader
time	ground_force_r_vx	ground_force_r_vy	ground_force_r_vz	ground_force_r_px	ground_force_r_py	ground_force_r_pz	ground_force_r_mx	ground_force_r_my	ground_force_r_mz	ground_force_l_vx	ground_force_l_vy	ground_force_l_vz	ground_force_l_px	ground_force_l_py	ground_force_l_pz	ground_force_l_mx	ground_force_l_my	ground_force_l_mz
      7.49900000	    204.27484291	    883.69907370	    -25.35939550	      2.01428163	      0.00000000	      1.01587052	     -0.00000000	      5.91393240	      0.00000000	      0.00000000	      0.00000000	      0.00000000	      0.00000000	      0.00000000	      0.00000000	      0.00000000	      0.00000000	      0.00000000
      7.50000000	    205.94898969	    863.79999785	    -24.82773599	      2.01024158	      0.00000000	      1.01590916	     -0.00000000	      5.83541041	      0.00000000	      0.00000000	      0.00000000	      0.00000000	      0.00000000	      0.00000000	      0.00000000	      0.00000000	      0.00000000	      0.00000000
      7.50100000	    206.81461250	    843.72576426	    -24.27134297	      2.00620016	      0.00000000	      1.01598262	     -0.00000000	      5.75401765	      0.00000000	      0.00000000	      0.00000000	      0.00000000	      0.00000000	      0.00000000	      0.00000000	      0.00000000	      0.00000000	      0.00000000
      7.50200000	    207.68023530	    823.65153068	    -23.71494995	      2.00215873	      0.00000000	      1.01605607	     -0.00000000	      5.67262488	      0.00000000	      0.00000000	      0.00000000	      0.00000000	      0.00000000	      0.00000000	      0.00000000	      0.00000000	      0.00000000	      0.00000000
      7.50300000	    208.54585811	    803.57729709	    -23.15855693	      1.99811731	      0.00000000	      1.01612953	     -0.00000000	      5.59123211	      0.00000000	      0.00000000	      0.00000000	      0.00000000	      0.00000000	      0.00000000	      0.00000000	      0.00000000	      0.00000000	      0.00000000
      7.50400000	    208.88026161	    783.48945460	    -22.59153662	      1.99408207	      0.00000000	      1.01622855	     -0.00000000	      5.50766102	      0.00000000	      0.00000000	      0.00000000	      0.00000000	      0.00000000	      0.00000000	      0.00000000	      0.00000000	      0.00000000	      0.00000000
      7.50500000	    208.94905546	    763.39480766	    -22.01920267	      1.99004993	      0.00000000	      1.01634037	     -0.00000000	      5.42300076	      0.00000000	      0.00000000	      0.00000000	      0.00000000	      0.00000000	      0.00000000	      0.00000000	      0.00000000	      0.00000000	      0.00000000
      7.50600000	    209.01784931	    743.30016073	    -21.44686872	      1.98601779	      0.00000000	      1.01645218	     -0.00000000	      5.33834050	      0.00000000	      0.00000000	      0.00000000	      0.00000000	      0.00000000	      0.00000000	      0.00000000	      0.00000000	      0.00000000	      0.00000000
      7.50700000	    208.82966898	    723.25097419	    -20.87226358	      1.98199326	      0.00000000	      1.01657769	     -0.00000000	      5.25246298	      0.00000000	      0.00000000	      0.00000000	      0.00000000	      0.00000000	      0.00000000	      0.00000000	      0.00000000	      0.00000000	      0.00000000
      7.50800000	    208.12754030	    703.29270846	    -20.29311606	      1.97798396	      0.00000000	      1.01673060	     -0.00000000	      5.16415097	     -0.00000000	      0.00000000	      0.00000000	      0.00000000	      0.00000000	      0.00000000	      0.00000000	      0.00000000	      0.00000000	      0.00000000
      7.50900000	    207.42541161	    683.33444273	    -19.71396855	      1.97397466	      0.00000000	      1.01688352	     -0.00000000	      5.07583895	     -0.00000000	      0.00000000	      0.00000000	      0.00000000	      0.00000000	      0.00000000	      0.00000000	      0.00000000	      0.00000000	      0.00000000
      7.51000000	    206.72328293	    663.37617699	    -19.13482103	      1.96996536	      0.00000000	      1.01703643	     -0.00000000	      4.98752693	     -0.00000000	      0.00000000	      0.00000000	      0.00000000	      0.00000000	      0.00000000	      0.00000000	      0.00000000	      0.00000000	      0.00000000
      7.51100000	    205.29037264	    643.71053773	    -18.55799247	      1.96599515	      0.00000000	      1.01723216	     -0.00000000	      4.89524785	     -0.00000000	      0.00000000	      0.00000000	      0.00000000	      0.00000000	      0.00000000	      0.00000000	      0.00000000	      0.00000000	      0.00000000
      7.51200000	    203.85746235	    624.04489847	    -17.98116391	      1.96202494	      0.00000000	      1.01742790	     -0.00000000	      4.80296877	     -0.00000000	      0.00000000	      0.00000000	      0.00000000	      0.00000000	      0.00000000	      0.00000000	      0.00000000	      0.00000000	      0.00000000
      7.51300000	    202.42455206	    604.37925921	    -17.40433534	      1.95805473	      0.00000000	      1.01762363	     -0.00000000	      4.71068970	     -0.00000000	      0.00000000	      0.00000000	      0.00000000	      0.00000000	      0.00000000	      0.00000000	      0.00000000	      0.00000000	      0.00000000
      7.51400000	    200.54045917	    585.01062290	    -16.83492360	      1.95412298	      0.00000000	      1.01784824	     -0.00000000	      4.61563696	     -0.00000000	      0.00000000	      0.00000000	      0.00000000	      0.00000000	      0.00000000	      0.00000000	      0.00000000	      0.00000000	      0.00000000
      7.51500000	    198.43077497	    565.79048808	    -16.26922027	      1.95021046	      0.00000000	      1.01808729	     -0.00000000	      4.51919738	     -0.00000000	      0.00000000	      0.00000000	      0.00000000	      0.00000000	      0.00000000	      0.00000000	      0.00000000	      0.00000000	      0.00000000
      7.51600000	    196.32109078	    546.57035325	    -15.70351694	      1.94629793	      0.00000000	      1.01832635	     -0.00000000	      4.42275781	     -0.00000000	      0.00000000	      0.00000000	      0.00000000	      0.00000000	      0.00000000	      0.00000000	      0.00000000	      0.00000000	      0.00000000
      7.51700000	    194.00816967	    527.54757639	    -15.14424466	      1.94241146	      0.00000000	      1.01857956	      0.00000000	      4.32492359	     -0.00000000	      0.00000000	      0.00000000	      0.00000000	      0.00000000	      0.00000000	      0.00000000	      0.00000000	      0.00000000	      0.00000000
      7.51800000	    191.28877476	    508.91951546	    -14.59783449	      1.93857710	      0.00000000	      1.01886108	      0.00000000	      4.22430007	     -0.00000000	      0.00000000	      0.00000000	      0.00000000	      0.00000000	      0.00000000	      0.00000000	      0.00000000	      0.00000000	      0.00000000
      7.51900000	    188.56937985	    490.29145453	    -14.05142432	      1.93474273	      0.00000000	      1.01914260	      0.00000000	      4.12367655	     -0.00000000	      0.00000000	      0.00000000	      0.00000000	      0.00000000	      0.00000000	      0.00000000	      0.00000000	      0.00000000	      0.00000000
      7.52000000	    185.84998494	    471.66339361	    -13.50501415	      1.93090837	      0.00000000	      1.01942412	      0.00000000	      4.02305303	     -0.00000000	      0.00000000	      0.00000000	      0.00000000	      0.00000000	      0.00000000	      0.00000000	      0.00000000	      0.00000000	      0.00000000
      7.52100000	    182.59971374	    453.76471544	    -12.98515243	      1.92717397	      0.00000000	      1.01974581	      0.00000000	      3.91843366	     -0.00000000	      0.00000000	      0.00000000	      0.00000000	      0.00000000	      0.00000000	      0.00000000	      0.00000000	      0.00000000	      0.00000000
      7.52200000	    179.34944253	    435.86603727	    -12.46529071	      1.92343958	      0.00000000	      1.02006749	      0.00000000	      3.81381430	     -0.00000000	      0.00000000	      0.00000000	      0.00000000	      0.00000000	      0.00000000	      0.00000000	      0.00000000	      0.00000000	      0.00000000
      7.52300000	    176.09917133	    417.96735911	    -11.94542898	      1.91970518	      0.00000000	      1.02038918	      0.00000000	      3.70919493	     -0.00000000	      0.00000000	      0.00000000	      0.00000000	      0.00000000	      0.00000000	      0.00000000	      0.00000000	      0.00000000	      0.00000000
      7.52400000	    172.55421403	    400.63840709	    -11.44734674	      1.91605244	      0.00000000	      1.02073513	      0.00000000	      3.60219942	     -0.00000000	      0.00000000	      0.00000000	      0.00000000	      0.00000000	      0.00000000	      0.00000000	      0.00000000	      0.00000000	      0.00000000
      7.52500000	    168.86191369	    383.59431814	    -10.96015424	      1.91244052	      0.00000000	      1.02109321	      0.00000000	      3.49401583	     -0.00000000	      0.00000000	      0.00000000	      0.00000000	      0.00000000	      0.00000000	      0.00000000	      0.00000000	      0.00000000	      0.00000000
      7.52600000	    165.16961334	    366.55022919	    -10.47296174	      1.90882860	      0.00000000	      1.02145129	      0.00000000	      3.38583225	     -0.00000000	      0.00000000	      0.00000000	      0.00000000	      0.00000000	      0.00000000	      0.00000000	      0.00000000	      0.00000000	      0.00000000
      7.52700000	    161.36218872	    349.82783447	     -9.99826806	      1.90526503	      0.00000000	      1.02181977	      0.00000000	      3.27669186	     -0.00000000	      0.00000000	      0.00000000	      0.00000000	      0.00000000	      0.00000000	      0.00000000	      0.00000000	      0.00000000	      0.00000000
      7.52800000	    157.32451553	    333.74882821	     -9.54857203	      1.90179815	      0.00000000	      1.02220906	      0.00000000	      3.16563789	     -0.00000000	      0.00000000	      0.00000000	      0.00000000	      0.00000000	      0.00000000	      0.00000000	      0.00000000	      0.00000000	      0.00000000
